<svg width="14" height="25" viewBox="0 0 14 25" fill="none" xmlns="http://www.w3.org/2000/svg">
<path d="M8.50705 25H3.87218V13.6182H0V9.15929H3.87218V5.8738C3.82137 5.07992 3.93593 4.28413 4.20861 3.53681C4.48128 2.78948 4.90612 2.10691 5.45625 1.53227C6.02467 1.01157 6.69064 0.60866 7.41569 0.346838C8.14073 0.0850159 8.91048 -0.0305312 9.68044 0.00687249C10.8368 -0.00676123 11.9929 0.0520231 13.1419 0.18288V4.11373L10.7365 4.17239C10.4226 4.13503 10.1044 4.16263 9.80156 4.25346C9.49878 4.3443 9.21791 4.49644 8.97641 4.70042C8.63082 5.15293 8.46376 5.71675 8.50705 6.28449V9.15929H12.9659L12.3792 13.6182H8.50705V25Z" fill="#56CCF2"/>
</svg>
