<svg width="151" height="34" viewBox="0 0 151 34" fill="none" xmlns="http://www.w3.org/2000/svg">
<path d="M31.9703 1.76029L20.6822 28.4552H11.8347L0.546608 1.76029H10.233L16.6017 17.3578L23.1229 1.76029H31.9703Z" fill="white"/>
<path d="M110.852 29.0654C106.758 29.0654 103.568 27.9594 101.28 25.7476C98.9916 23.5357 97.8475 20.434 97.8475 16.4425V1.76029H106.847V16.1755C106.847 18.1332 107.191 19.5569 107.877 20.4467C108.589 21.3366 109.606 21.7815 110.928 21.7815C112.25 21.7815 113.254 21.3366 113.941 20.4467C114.653 19.5569 115.008 18.1332 115.008 16.1755V1.76029H123.856V16.4425C123.856 20.434 122.712 23.5357 120.424 25.7476C118.136 27.9594 114.945 29.0654 110.852 29.0654Z" fill="white"/>
<path d="M137.935 29.0654C135.723 29.0654 133.562 28.8239 131.452 28.3408C129.367 27.8323 127.651 27.1586 126.303 26.3196L129.202 19.7603C130.473 20.4976 131.897 21.095 133.473 21.5527C135.049 21.9849 136.562 22.201 138.011 22.201C139.257 22.201 140.147 22.0866 140.681 21.8578C141.215 21.6035 141.481 21.2349 141.481 20.7518C141.481 20.1925 141.126 19.773 140.414 19.4933C139.727 19.2137 138.583 18.9086 136.981 18.5781C134.922 18.1459 133.206 17.6883 131.833 17.2052C130.46 16.6967 129.265 15.8832 128.248 14.7645C127.231 13.6205 126.723 12.0823 126.723 10.1501C126.723 8.47216 127.193 6.94673 128.134 5.57385C129.075 4.20097 130.473 3.12046 132.329 2.33233C134.21 1.54419 136.486 1.15012 139.155 1.15012C140.986 1.15012 142.778 1.35351 144.532 1.76029C146.312 2.14165 147.876 2.71368 149.223 3.47639L146.515 9.99758C143.897 8.67555 141.418 8.01453 139.079 8.01453C136.765 8.01453 135.609 8.57385 135.609 9.6925C135.609 10.2264 135.952 10.6332 136.638 10.9128C137.325 11.1671 138.456 11.4467 140.032 11.7518C142.066 12.1332 143.782 12.5781 145.181 13.0866C146.579 13.5696 147.787 14.3705 148.803 15.4891C149.846 16.6078 150.367 18.1332 150.367 20.0654C150.367 21.7433 149.897 23.2688 148.956 24.6417C148.015 25.9891 146.604 27.0696 144.723 27.8832C142.867 28.6713 140.604 29.0654 137.935 29.0654Z" fill="white"/>
<path fill-rule="evenodd" clip-rule="evenodd" d="M47.0339 21.6102C50.5442 21.6102 53.3898 18.7645 53.3898 15.2542C53.3898 11.744 50.5442 8.89831 47.0339 8.89831C43.5236 8.89831 40.678 11.744 40.678 15.2542C40.678 18.7645 43.5236 21.6102 47.0339 21.6102ZM47.0339 29.2373C54.7565 29.2373 61.0169 22.9769 61.0169 15.2542C61.0169 7.53161 54.7565 1.27119 47.0339 1.27119C39.3113 1.27119 33.0508 7.53161 33.0508 15.2542C33.0508 22.9769 39.3113 29.2373 47.0339 29.2373Z" fill="white"/>
<path fill-rule="evenodd" clip-rule="evenodd" d="M80.459 21.3951C79.9342 21.5354 79.3826 21.6102 78.8136 21.6102C75.3033 21.6102 72.4576 18.7645 72.4576 15.2542C72.4576 11.744 75.3033 8.89831 78.8136 8.89831C82.3238 8.89831 85.1695 11.744 85.1695 15.2542C85.1695 15.8233 85.0947 16.3749 84.9544 16.8997L92.3235 18.8742C92.6321 17.7196 92.7966 16.5061 92.7966 15.2542C92.7966 7.53161 86.5362 1.27119 78.8136 1.27119C71.0909 1.27119 64.8305 7.53161 64.8305 15.2542C64.8305 22.9769 71.0909 29.2373 78.8136 29.2373C80.0655 29.2373 81.2789 29.0728 82.4335 28.7642L80.459 21.3951Z" fill="white"/>
<path d="M82.6271 19.0678L94.6578 22.2914L85.8507 31.0984L82.6271 19.0678Z" fill="#56CCF2"/>
</svg>
