<svg width="119" height="27" viewBox="0 0 119 27" fill="none" xmlns="http://www.w3.org/2000/svg">
<path d="M25.15 1.38478L16.27 22.3848H9.30999L0.429993 1.38478H8.04999L13.06 13.6548L18.19 1.38478H25.15Z" fill="#4D4D4D"/>
<path d="M87.2034 22.8648C83.9834 22.8648 81.4734 21.9948 79.6734 20.2548C77.8734 18.5148 76.9734 16.0748 76.9734 12.9348V1.38478H84.0534V12.7248C84.0534 14.2648 84.3233 15.3848 84.8633 16.0848C85.4233 16.7848 86.2234 17.1348 87.2634 17.1348C88.3034 17.1348 89.0934 16.7848 89.6334 16.0848C90.1934 15.3848 90.4734 14.2648 90.4734 12.7248V1.38478H97.4333V12.9348C97.4333 16.0748 96.5334 18.5148 94.7334 20.2548C92.9333 21.9948 90.4234 22.8648 87.2034 22.8648Z" fill="#4D4D4D"/>
<path d="M108.509 22.8648C106.769 22.8648 105.069 22.6748 103.409 22.2948C101.769 21.8948 100.419 21.3648 99.3587 20.7048L101.639 15.5448C102.639 16.1248 103.759 16.5948 104.999 16.9548C106.239 17.2948 107.429 17.4648 108.569 17.4648C109.549 17.4648 110.249 17.3748 110.669 17.1948C111.089 16.9948 111.299 16.7048 111.299 16.3248C111.299 15.8848 111.019 15.5548 110.459 15.3348C109.919 15.1148 109.019 14.8748 107.759 14.6148C106.139 14.2748 104.789 13.9148 103.709 13.5348C102.629 13.1348 101.689 12.4948 100.889 11.6148C100.089 10.7148 99.6887 9.50479 99.6887 7.98479C99.6887 6.66479 100.059 5.46479 100.799 4.38479C101.539 3.30478 102.639 2.45478 104.099 1.83478C105.579 1.21478 107.369 0.904785 109.469 0.904785C110.909 0.904785 112.319 1.06478 113.699 1.38478C115.099 1.68478 116.329 2.13478 117.389 2.73478L115.259 7.86479C113.199 6.82479 111.249 6.30479 109.409 6.30479C107.589 6.30479 106.679 6.74479 106.679 7.62479C106.679 8.04479 106.949 8.36479 107.489 8.58479C108.029 8.78479 108.919 9.00479 110.159 9.24479C111.759 9.54479 113.109 9.89478 114.209 10.2948C115.309 10.6748 116.259 11.3048 117.059 12.1848C117.879 13.0648 118.289 14.2648 118.289 15.7848C118.289 17.1048 117.919 18.3048 117.179 19.3848C116.439 20.4448 115.329 21.2948 113.849 21.9348C112.389 22.5548 110.609 22.8648 108.509 22.8648Z" fill="#4D4D4D"/>
<path fill-rule="evenodd" clip-rule="evenodd" d="M37 17C39.7614 17 42 14.7614 42 12C42 9.23858 39.7614 7 37 7C34.2386 7 32 9.23858 32 12C32 14.7614 34.2386 17 37 17ZM37 23C43.0751 23 48 18.0751 48 12C48 5.92487 43.0751 1 37 1C30.9249 1 26 5.92487 26 12C26 18.0751 30.9249 23 37 23Z" fill="#4D4D4D"/>
<path fill-rule="evenodd" clip-rule="evenodd" d="M63.2944 16.8308C62.8816 16.9412 62.4476 17 62 17C59.2386 17 57 14.7614 57 12C57 9.23858 59.2386 7 62 7C64.7614 7 67 9.23858 67 12C67 12.4476 66.9412 12.8816 66.8308 13.2944L72.6278 14.8477C72.8706 13.9394 73 12.9848 73 12C73 5.92487 68.0751 1 62 1C55.9249 1 51 5.92487 51 12C51 18.0751 55.9249 23 62 23C62.9848 23 63.9394 22.8706 64.8477 22.6278L63.2944 16.8308Z" fill="#4D4D4D"/>
<path d="M65 15L74.4641 17.5359L67.5359 24.4641L65 15Z" fill="#56CCF2"/>
</svg>
