<svg width="29" height="24" viewBox="0 0 29 24" fill="none" xmlns="http://www.w3.org/2000/svg">
<path d="M26.0125 5.96568V6.72868C26.0092 8.82737 25.6291 10.9076 24.891 12.8663C24.1443 14.8776 23.0648 16.7429 21.6996 18.3808C20.2233 20.1178 18.3917 21.5029 16.3341 22.4382C14.0644 23.4945 11.5947 24.0273 9.10061 23.9989C5.87373 24.0225 2.71047 23.0823 0 21.294C0.452091 21.3403 0.92753 21.3634 1.42632 21.3634C4.1077 21.3913 6.71852 20.4863 8.82923 18.7973C7.56343 18.769 6.33892 18.332 5.33142 17.5489C4.34394 16.809 3.61728 15.7627 3.25991 14.5664C3.61501 14.6586 3.97998 14.7052 4.34638 14.7052C4.87905 14.7071 5.40789 14.6131 5.90863 14.4275C4.57204 14.1637 3.36948 13.4267 2.51277 12.3463C1.62371 11.2841 1.1412 9.9291 1.15442 8.5318V8.46239C1.9934 8.91925 2.92136 9.17987 3.87111 9.22539C3.04105 8.68469 2.36132 7.93481 1.8974 7.04798C1.43349 6.16115 1.20102 5.16726 1.22239 4.16206C1.2132 3.08757 1.49533 2.03145 2.03755 1.11059C3.52118 2.95164 5.35886 4.46232 7.43696 5.54922C9.55544 6.66279 11.8824 7.30138 14.2621 7.42223C14.1719 6.96562 14.1266 6.50096 14.1267 6.03515C14.1277 4.43513 14.7505 2.90093 15.8584 1.76955C16.9662 0.638167 18.4686 0.00212679 20.0353 0.0011425C20.8479 -0.0151574 21.6548 0.143113 22.4036 0.465694C23.1525 0.788275 23.8266 1.26797 24.3822 1.87367C25.7195 1.604 27.0043 1.11193 28.1854 0.417084C27.749 1.83027 26.8019 3.02066 25.5367 3.74619C26.7273 3.61583 27.8936 3.31215 29 2.84437C28.1832 4.04904 27.1732 5.1043 26.0125 5.96568Z" fill="#56CCF2"/>
</svg>
