<svg width="25" height="28" viewBox="0 0 25 28" fill="none" xmlns="http://www.w3.org/2000/svg">
<path fill-rule="evenodd" clip-rule="evenodd" d="M22.1784 2.65044C21.5247 2.03083 18.8781 0.0469652 12.9788 0.0197891C12.9788 0.0197891 6.02506 -0.415029 2.63518 2.79176C0.747818 4.73757 0.0835497 7.5802 0.015014 11.1131C-0.0535216 14.6406 -0.143146 21.2553 6.04088 23.0489H6.04615L6.04088 25.7828C6.04088 25.7828 6.00398 26.8916 6.71042 27.1144C7.42423 27.3416 7.89498 26.7904 8.50742 26.0733C8.62764 25.9325 8.7537 25.7849 8.88774 25.636C9.33586 25.136 9.95268 24.4077 10.4219 23.8479C14.65 24.212 17.9028 23.375 18.2719 23.25C18.349 23.2239 18.4587 23.1951 18.595 23.1592C19.9667 22.7981 24.0313 21.7282 24.7458 15.7113C25.5577 8.9064 24.3504 4.59626 22.1784 2.65044ZM15.4092 11.3088C15.2352 11.3088 15.0876 11.1675 15.077 10.9827C15.019 9.81415 14.4866 9.24345 13.4006 9.18367C13.216 9.1728 13.0737 9.00974 13.0842 8.81951C13.0948 8.62927 13.2529 8.48252 13.4375 8.49339C14.8714 8.57492 15.6728 9.42282 15.7466 10.9447C15.7571 11.1349 15.6148 11.298 15.4303 11.3034C15.4197 11.3088 15.4144 11.3088 15.4092 11.3088ZM17.112 11.896H17.1173C17.2965 11.896 17.4494 11.7493 17.4547 11.559C17.4811 10.2165 17.0909 9.08057 16.2843 8.17288C15.483 7.27063 14.3601 6.75972 12.9366 6.65102C12.7521 6.63471 12.5939 6.77603 12.5781 6.96626C12.5623 7.15649 12.6994 7.31955 12.8839 7.33586C14.1439 7.42826 15.0981 7.8522 15.7888 8.63488C16.4847 9.41755 16.8115 10.3687 16.7852 11.5427C16.7799 11.733 16.9275 11.8906 17.112 11.896ZM18.8676 12.6024C18.6831 12.6024 18.5355 12.4502 18.5355 12.26C18.5196 10.1566 17.9345 8.55316 16.743 7.35197C15.5673 6.16709 14.0754 5.56378 12.3198 5.54747C12.1353 5.54747 11.9877 5.38985 11.9877 5.19962C11.9877 5.00938 12.1406 4.8572 12.3198 4.8572C14.2546 4.8735 15.8995 5.54204 17.2017 6.85736C18.5091 8.17269 19.1786 9.98806 19.1997 12.2491C19.205 12.4448 19.0574 12.6024 18.8676 12.6024ZM14.2019 15.2874C13.9489 15.608 13.4796 15.5646 13.4796 15.5646C10.0529 14.6678 9.14081 11.0914 9.14081 11.0914C9.14081 11.0914 9.09864 10.6076 9.40968 10.3467L10.0265 9.84126C10.3323 9.59667 10.5273 9.00423 10.2163 8.4281C10.0423 8.10742 9.69437 7.53128 9.43604 7.16712C9.1619 6.78122 8.52399 5.99311 8.52399 5.99311C8.21294 5.61808 7.76483 5.53112 7.29035 5.78657H7.27981C6.83169 6.04747 6.40993 6.39532 6.0198 6.84101C6.0198 6.84373 6.01849 6.84509 6.01717 6.84644C6.01585 6.8478 6.01453 6.84916 6.01453 6.85188C5.72457 7.21604 5.55587 7.56933 5.51369 7.92262C5.50315 7.9661 5.50315 8.01502 5.50315 8.08024C5.50315 8.23243 5.52424 8.38462 5.57169 8.5368L5.5875 8.54767C5.73512 9.08576 6.10415 9.98801 6.91077 11.4936C7.43269 12.4719 7.96516 13.2872 8.49763 13.972C8.77705 14.3362 9.09336 14.7058 9.45713 15.0863L9.60475 15.2385C9.97379 15.6189 10.3323 15.9396 10.6855 16.2277C11.355 16.7766 12.1406 17.3256 13.0895 17.8637C14.5446 18.6953 15.4197 19.0757 15.9469 19.2279L15.9575 19.2442C16.1051 19.2931 16.2527 19.3149 16.4003 19.3149C16.4636 19.3149 16.511 19.3149 16.5532 19.304C16.8906 19.266 17.2386 19.092 17.5918 18.7877C17.5944 18.7877 17.5957 18.7863 17.5971 18.7849C17.5984 18.7836 17.5997 18.7822 17.6023 18.7822C18.0294 18.38 18.372 17.9452 18.6251 17.4832V17.4723C18.8729 16.9777 18.7885 16.5157 18.4248 16.2005C18.4195 16.1951 17.6603 15.5428 17.286 15.2602C16.9381 14.9939 16.374 14.6351 16.0629 14.4558C15.5041 14.1351 14.9294 14.3362 14.6922 14.6514L14.2019 15.2874Z" fill="#56CCF2"/>
</svg>
